Coordinates
version=1
nRows=13
nColumns=36
inDegrees=yes

Units are S.I. units (second, meters, Newtons, ...)
If the header above contains a line with 'inDegrees', this indicates whether rotational values are in degrees (yes) or radians (no).

endheader
time	pelvis_tilt	pelvis_list	pelvis_rotation	pelvis_tx	pelvis_ty	pelvis_tz	hip_flexion_r	hip_adduction_r	hip_rotation_r	knee_angle_r	knee_angle_r_beta	ankle_angle_r	subtalar_angle_r	mtp_angle_r	hip_flexion_l	hip_adduction_l	hip_rotation_l	knee_angle_l	knee_angle_l_beta	ankle_angle_l	subtalar_angle_l	mtp_angle_l	lumbar_extension	lumbar_bending	lumbar_rotation	arm_flex_r	arm_add_r	arm_rot_r	elbow_flex_r	pro_sup_r	arm_flex_l	arm_add_l	arm_rot_l	elbow_flex_l	pro_sup_l
      1.69583330	     -4.75939677	      0.04551421	      1.04970933	     -1.06915330	      1.39180990	     -0.05267828	      1.46722656	     -0.23452992	      3.39225366	      2.43498330	      0.04249848	     10.44406856	      2.28347605	     -7.49999987	      2.60705617	      0.04682493	      1.93734028	      3.96428720	      0.06918986	      9.47115822	      2.36151145	     -7.49999987	     -6.79534562	      0.06592960	     -0.73815436	      3.02857391	     -4.08433234	     -1.52990391	     36.65617841	     86.05520041	      7.72015507	     -4.61088604	      9.34051717	     37.56721281	     91.35299113
      1.70000000	     -5.46758739	      0.06353870	      1.16349932	     -1.07726134	      1.38987783	     -0.05315313	      2.35611631	     -0.25234205	      3.46378608	      2.60587430	      0.04548109	     10.68723523	      2.08542523	     -7.49999987	      3.51829288	      0.06385103	      2.26442140	      4.22707366	      0.07377635	      9.63644062	      1.91718707	     -7.49999987	     -5.82348222	      0.02607420	     -0.79110264	      2.58723683	     -4.11860761	     -2.33777412	     36.00219768	     86.30711553	      7.36864664	     -4.74950494	      8.49887453	     36.77669085	     91.51740360
      1.70416670	     -5.62925436	      0.08545495	      1.25468183	     -1.07117531	      1.38496524	     -0.05068172	      2.47840041	     -0.20362782	      3.62608114	      2.55175450	      0.04453652	     10.93441292	      1.93470416	     -7.49999987	      3.71230039	      0.02459867	      2.45973932	      4.36637305	      0.07620759	      9.82059480	      1.87671496	     -7.49999987	     -5.49393455	     -0.05643162	     -0.84213954	      2.03408789	     -4.14707487	     -2.96837264	     35.50919904	     87.08779561	      6.88052285	     -5.05874660	      7.71334045	     36.42204247	     91.98311027
      1.70833330	     -5.92885270	      0.07266595	      1.22998211	     -1.07120676	      1.38576635	     -0.04925605	      2.83177679	     -0.09632051	      3.82334839	      2.57362730	      0.04491827	     11.07775185	      1.73402537	     -7.49999987	      4.03146010	     -0.06734927	      2.51525962	      4.44519280	      0.07758325	     10.08734063	      1.70959927	     -7.49999987	     -5.06979202	     -0.12775667	     -0.79959219	      1.48080278	     -4.15901513	     -3.76252394	     35.21014036	     89.62910077	      6.36732941	     -5.37627553	      6.86871486	     36.05160564	     93.73051817
      1.71250000	     -6.08303807	      0.06733887	      1.27205443	     -1.06996511	      1.38672246	     -0.05050921	      2.89761422	     -0.05196042	      3.86256046	      2.54327170	      0.04438847	     11.25804134	      1.68709635	     -7.49999987	      4.23120447	     -0.12111321	      2.60951790	      4.62531055	      0.08072690	     10.28743756	      1.55754912	     -7.49999987	     -4.76093197	     -0.14051379	     -0.77397076	      0.95148358	     -4.29993168	     -4.00293807	     34.85629844	     88.83145375	      5.90638976	     -5.65974451	      6.49191671	     35.57375120	     92.88570235
      1.71666670	     -6.36818594	      0.08378921	      1.23915756	     -1.06542953	      1.38139547	     -0.05073842	      3.09031334	     -0.04407796	      3.91095984	      2.59995391	      0.04537776	     11.47918448	      1.63033431	     -7.49999987	      4.50900840	     -0.13134732	      2.63891185	      4.79127978	      0.08362361	     10.57787081	      1.41121986	     -7.49999987	     -4.17659424	     -0.15827480	     -0.67059745	      0.22129716	     -4.48443264	     -4.48022132	     34.42817245	     89.09381878	      5.26077818	     -5.85198780	      5.84453973	     35.05822632	     92.91476929
      1.72083330	     -6.50792638	      0.10091935	      1.16697851	     -1.06280250	      1.38582298	     -0.05041794	      3.04775497	     -0.02797623	      4.02789056	      2.47620345	      0.04321790	     11.56735026	      1.63645148	     -7.49999987	      4.48454032	     -0.15040060	      2.63716094	      4.72680531	      0.08249832	     10.70090843	      1.36476181	     -7.49999987	     -3.74830730	     -0.13281374	     -0.51660342	     -0.60229887	     -4.67090866	     -4.74912174	     34.12526451	     89.16385008	      4.55284805	     -6.08061867	      5.46011325	     34.59097596	     92.92930198
      1.72500000	     -6.73272106	      0.10372191	      1.12392075	     -1.06454812	      1.38678039	     -0.04701593	      3.17001342	      0.05417194	      4.21885842	      2.33259718	      0.04071150	     11.63872101	      1.57539220	     -7.49999987	      4.62046264	     -0.19574752	      2.67486464	      4.71102721	      0.08222294	     10.75260297	      1.15484162	     -7.49999987	     -3.23837890	     -0.22665734	     -0.33388358	     -1.30897511	     -4.74945452	     -5.31432871	     33.60461688	     89.31455529	      4.00361682	     -6.33342801	      4.65930429	     33.93277901	     92.95060661
      1.72916670	     -6.85045126	      0.10830551	      1.07022571	     -1.06404266	      1.38576943	     -0.04644735	      3.16886854	      0.14263212	      4.39279450	      2.14187597	      0.03738279	     11.64352687	      1.56724779	     -7.49999987	      4.62943179	     -0.24936349	      2.66392487	      4.64105347	      0.08100166	     10.79044426	      0.99085152	     -7.49999987	     -2.93167307	     -0.28949713	     -0.24906971	     -1.99064490	     -4.69547496	     -6.48714782	     33.14485156	     91.77722628	      3.34943550	     -6.54466686	      3.32698858	     33.56398619	     94.62816105
      1.73333330	     -6.87290154	      0.12701835	      0.98372053	     -1.06286208	      1.39049575	     -0.04631196	      3.07781164	      0.19872247	      4.46676773	      1.98130896	      0.03458036	     11.52545304	      1.66793669	     -7.49999987	      4.52528240	     -0.28383800	      2.59843081	      4.58865604	      0.08008716	     10.71397618	      0.94249105	     -7.49999987	     -2.82275886	     -0.36352848	     -0.14181449	     -2.64511200	     -4.81258356	     -6.60796266	     32.78150144	     91.77281950	      2.79819937	     -6.96549038	      3.13299257	     33.24883173	     94.60157614
      1.73750000	     -6.88344161	      0.12171276	      0.83644930	     -1.06207342	      1.39337405	     -0.04564004	      2.97900439	      0.25971626	      4.61431876	      1.75209251	      0.03057978	     11.36362599	      1.80649640	     -7.49999987	      4.35421348	     -0.33513427	      2.51416148	      4.39167591	      0.07664920	     10.44197333	      0.93043711	     -7.49999987	     -2.72574966	     -0.39518653	     -0.09193517	     -3.14194913	     -4.94860860	     -6.22110373	     31.95387750	     85.50916783	      2.28713360	     -7.29711656	      3.17212001	     32.66973772	     87.97313462
      1.74166670	     -7.04440254	      0.15965663	      0.70454535	     -1.06242524	      1.39539139	     -0.04657173	      3.10212146	      0.24541299	      4.66799101	      1.60456502	      0.02800494	     11.08942152	      1.79833830	     -7.49999987	      4.45403051	     -0.29314254	      2.41160038	      4.38688023	      0.07656550	     10.12662154	      0.85593482	     -7.49999987	     -2.46231977	     -0.46212108	      0.03060233	     -3.70412074	     -4.88524435	     -8.40789583	     31.08967421	     93.00914132	      1.80770576	     -7.35134543	      1.09547134	     31.98157059	     95.27803003
      1.74583330	     -6.99120355	      0.16274365	      0.59416199	     -1.06342451	      1.40041983	     -0.05119575	      2.99427790	      0.18420785	      4.62747299	      1.49094773	      0.02602195	     10.76741052	      1.95211274	     -7.49999987	      4.27875578	     -0.22411694	      2.31398867	      4.18486566	      0.07303968	      9.76700582	      0.90183924	     -7.49999987	     -2.59123797	     -0.35342979	      0.01083140	     -4.17299499	     -5.24911198	     -8.78415938	     30.46020433	     92.99064744	      1.40306331	     -7.47104298	      0.71480688	     31.41788091	     95.20295432
